<svg xmlns="http://www.w3.org/2000/svg" xmlns:xlink="http://www.w3.org/1999/xlink" width="4000" zoomAndPan="magnify" viewBox="0 0 3000 2999.999989" height="4000" preserveAspectRatio="xMidYMid meet" version="1.0"><path fill="#000000" d="M 36.964844 2302.953125 C 13.070312 2265.121094 4.109375 2220.316406 15.058594 2176.511719 L 326.683594 813.53125 C 326.683594 812.535156 326.683594 811.542969 327.679688 810.546875 C 361.527344 694.058594 443.167969 593.503906 549.699219 534.765625 C 550.695312 534.765625 550.695312 533.769531 551.6875 533.769531 L 1066.414062 279.890625 C 1067.410156 278.894531 1068.40625 278.894531 1070.398438 277.898438 C 1126.152344 255.996094 1191.859375 278.894531 1213.765625 328.675781 C 1259.5625 432.21875 1371.070312 498.921875 1496.515625 498.921875 C 1497.511719 498.921875 1497.511719 498.921875 1498.507812 498.921875 C 1622.957031 497.925781 1723.511719 435.203125 1769.308594 329.671875 C 1791.214844 278.894531 1857.917969 255 1914.667969 277.898438 C 1915.664062 278.894531 1917.65625 278.894531 1918.648438 279.890625 L 2399.527344 525.804688 C 2509.042969 579.566406 2587.695312 679.125 2617.5625 797.601562 L 2961.046875 2196.421875 C 2970.003906 2235.25 2966.023438 2274.078125 2948.101562 2308.925781 L 2988.921875 2472.203125 C 2995.890625 2499.085938 2978.964844 2525.96875 2953.082031 2532.9375 L 2645.4375 2609.597656 C 2641.457031 2610.59375 2637.472656 2610.59375 2633.492188 2610.59375 C 2624.53125 2610.59375 2615.570312 2608.601562 2607.605469 2603.625 C 2596.65625 2596.65625 2587.695312 2585.703125 2584.707031 2572.761719 L 2541.898438 2399.527344 C 2514.019531 2377.621094 2492.117188 2346.757812 2483.15625 2309.921875 L 2288.019531 1505.476562 L 2291.003906 2293.992188 C 2291.003906 2363.683594 2264.125 2429.394531 2214.34375 2479.175781 C 2195.425781 2498.089844 2174.519531 2513.023438 2152.617188 2524.972656 L 2152.617188 2695.21875 C 2152.617188 2723.097656 2130.714844 2745 2102.835938 2745 L 883.222656 2745 C 855.347656 2745 833.445312 2723.097656 833.445312 2695.21875 L 833.445312 2524.972656 C 810.546875 2513.023438 789.636719 2497.09375 771.71875 2479.175781 C 721.9375 2429.394531 695.054688 2363.683594 695.054688 2293.992188 L 698.042969 1528.375 L 529.785156 2261.136719 C 517.839844 2310.917969 484.984375 2350.742188 442.171875 2371.648438 L 420.269531 2519.992188 C 416.285156 2544.882812 395.378906 2562.804688 371.484375 2562.804688 C 369.492188 2562.804688 366.507812 2562.804688 364.515625 2561.808594 L 58.867188 2517.007812 C 31.984375 2513.023438 13.066406 2488.132812 17.050781 2460.257812 Z M 36.964844 2302.953125 " fill-opacity="1" fill-rule="nonzero"/></svg>